<?xml version="1.0" encoding="UTF-8"?>
<svg width="37px" height="32px" viewBox="0 0 37 32" version="1.1" xmlns="http://www.w3.org/2000/svg" xmlns:xlink="http://www.w3.org/1999/xlink">
    <!-- Generator: sketchtool 59.1 (101010) - https://sketch.com -->
    <title>4A2E4EE4-056E-4A39-B632-7B022B24C9AE</title>
    <desc>Created with sketchtool.</desc>
    <g id="Page-1" stroke="none" stroke-width="1" fill="none" fill-rule="evenodd">
        <g id="Club-/-Arsenal" transform="translate(-480.000000, -492.000000)" fill="#FF2882">
            <g id="Page">
                <g id="Card-1" transform="translate(464.000000, 472.000000)">
                    <g id="#" transform="translate(16.000000, 20.000000)">
                        <g id="Icons/Jersey/Goalkeeper">
                            <path d="M8.08271091,0 C7.90789275,0 7.74096113,0.0706666667 7.61740544,0.194666667 L0.192234251,7.748 C-0.0640780838,8.008 -0.0640780838,8.42933333 0.192234251,8.69066667 L5.7588124,14.3373333 C5.88236809,14.4626667 6.05061414,14.532 6.22411787,14.532 C6.39893603,14.532 6.56586765,14.4613333 6.68942334,14.336 L7.42549979,13.588 L7.42549979,31.3333333 C7.42549979,31.7013333 7.71993037,32 8.08271091,32 L29.1134666,32 C29.4762471,32 29.7706777,31.7013333 29.7706777,31.3333333 L29.7706777,13.5906667 L30.3017043,14.1293333 C30.5593311,14.3893333 30.9746885,14.388 31.2310008,14.128 L36.8080944,8.472 C36.9303356,8.34533333 37,8.176 37,8 C37,7.82266667 36.9303356,7.65333333 36.8080944,7.528 L29.6628951,0.3 C29.5445971,0.118666667 29.3434905,0 29.1134666,0 L22.1207403,0 C21.9078039,0 21.7066973,0.105333333 21.5831416,0.281333333 C21.4609004,0.458666667 21.4293542,0.684 21.500333,0.889333333 C21.6225743,1.23466667 21.6882954,1.60933333 21.6882954,2 C21.6882954,3.84 20.2161425,5.33333333 18.4022398,5.33333333 C16.5870227,5.33333333 15.1161843,3.84 15.1161843,2 C15.1161843,1.60933333 15.1819054,1.23466667 15.3028322,0.889333333 C15.373811,0.684 15.3422649,0.458666667 15.2200236,0.281333333 C15.0964679,0.105333333 14.8966758,0 14.6824249,0 L8.08271091,0 Z" id="Pink-Jersey"></path>
                        </g>
                    </g>
                </g>
            </g>
        </g>
    </g>
</svg>